<svg data-v-423bf9ae="" xmlns="http://www.w3.org/2000/svg" viewBox="0 0 587.1743929359824 60" class="font"><!----><!----><!----><g data-v-423bf9ae="" id="9dc9e128-b417-4da8-8e83-63e37496da17" fill="white" transform="matrix(5.651214122772217,0,0,5.651214122772217,-6.887393951416016,-8.543045997619629)"><path d="M4.45 12.04L1.22 12.04L1.22 1.91L3.32 1.91L3.32 1.91Q5.60 1.91 6.63 2.28L6.63 2.28L6.63 2.28Q8.10 2.79 8.93 4.06L8.93 4.06L8.93 4.06Q9.76 5.34 9.76 7.10L9.76 7.10L9.76 7.10Q9.76 8.62 9.10 9.78L9.10 9.78L9.10 9.78Q8.44 10.94 7.39 11.49L7.39 11.49L7.39 11.49Q6.34 12.04 4.45 12.04L4.45 12.04ZM2.19 2.89L2.19 11.08L3.36 11.08L3.36 11.08Q5.46 11.08 6.28 10.82L6.28 10.82L6.28 10.82Q7.42 10.45 8.08 9.48L8.08 9.48L8.08 9.48Q8.74 8.52 8.74 7.12L8.74 7.12L8.74 7.12Q8.74 5.65 8.03 4.61L8.03 4.61L8.03 4.61Q7.32 3.57 6.05 3.19L6.05 3.19L6.05 3.19Q5.09 2.89 2.91 2.89L2.91 2.89L2.19 2.89ZM15.10 4.22L15.10 4.22L15.10 4.22Q16.83 4.22 17.97 5.47L17.97 5.47L17.97 5.47Q19.00 6.62 19.00 8.18L19.00 8.18L19.00 8.18Q19.00 9.75 17.91 10.92L17.91 10.92L17.91 10.92Q16.82 12.09 15.10 12.09L15.10 12.09L15.10 12.09Q13.38 12.09 12.29 10.92L12.29 10.92L12.29 10.92Q11.20 9.75 11.20 8.18L11.20 8.18L11.20 8.18Q11.20 6.62 12.23 5.48L12.23 5.48L12.23 5.48Q13.37 4.22 15.10 4.22ZM15.10 5.16L15.10 5.16L15.10 5.16Q13.90 5.16 13.04 6.05L13.04 6.05L13.04 6.05Q12.18 6.94 12.18 8.20L12.18 8.20L12.18 8.20Q12.18 9.01 12.57 9.72L12.57 9.72L12.57 9.72Q12.97 10.42 13.64 10.80L13.64 10.80L13.64 10.80Q14.31 11.18 15.10 11.18L15.10 11.18L15.10 11.18Q15.91 11.18 16.57 10.80L16.57 10.80L16.57 10.80Q17.24 10.42 17.63 9.72L17.63 9.72L17.63 9.72Q18.02 9.01 18.02 8.20L18.02 8.20L18.02 8.20Q18.02 6.94 17.16 6.05L17.16 6.05L17.16 6.05Q16.30 5.16 15.10 5.16ZM20.65 8.02L20.65 4.41L21.62 4.41L21.62 7.91L21.62 7.91Q21.62 9.19 21.76 9.67L21.76 9.67L21.76 9.67Q21.96 10.36 22.54 10.76L22.54 10.76L22.54 10.76Q23.13 11.16 23.94 11.16L23.94 11.16L23.94 11.16Q24.75 11.16 25.31 10.77L25.31 10.77L25.31 10.77Q25.87 10.38 26.08 9.75L26.08 9.75L26.08 9.75Q26.23 9.32 26.23 7.91L26.23 7.91L26.23 4.41L27.21 4.41L27.21 8.09L27.21 8.09Q27.21 9.65 26.85 10.43L26.85 10.43L26.85 10.43Q26.48 11.21 25.76 11.65L25.76 11.65L25.76 11.65Q25.03 12.09 23.94 12.09L23.94 12.09L23.94 12.09Q22.84 12.09 22.11 11.65L22.11 11.65L22.11 11.65Q21.38 11.21 21.01 10.41L21.01 10.41L21.01 10.41Q20.65 9.62 20.65 8.02L20.65 8.02ZM29.95 10.63L29.95 10.63L29.95 10.63Q29.33 9.60 29.21 8.61L29.21 8.61L29.21 8.61Q29.21 1.50 29.21 1.51L29.21 1.51L30.17 1.51L30.17 5.69L30.17 5.69Q30.78 4.95 31.53 4.58L31.53 4.58L31.53 4.58Q32.28 4.22 33.17 4.22L33.17 4.22L33.17 4.22Q34.76 4.22 35.89 5.37L35.89 5.37L35.89 5.37Q37.02 6.53 37.02 8.18L37.02 8.18L37.02 8.18Q37.02 9.80 35.88 10.94L35.88 10.94L35.88 10.94Q34.75 12.09 33.15 12.09L33.15 12.09L33.15 12.09Q32.23 12.09 31.43 11.74L31.43 11.74L31.43 11.74Q30.63 11.39 29.95 10.63ZM33.07 11.17L33.07 11.17L33.07 11.17Q33.88 11.17 34.56 10.77L34.56 10.77L34.56 10.77Q35.24 10.37 35.64 9.66L35.64 9.66L35.64 9.66Q36.05 8.95 36.05 8.14L36.05 8.14L36.05 8.14Q36.05 7.35 35.64 6.62L35.64 6.62L35.64 6.62Q35.23 5.89 34.55 5.49L34.55 5.49L34.55 5.49Q33.86 5.09 33.08 5.09L33.08 5.09L33.08 5.09Q32.29 5.09 31.58 5.49L31.58 5.49L31.58 5.49Q30.86 5.89 30.48 6.58L30.48 6.58L30.48 6.58Q30.10 7.27 30.10 8.11L30.10 8.11L30.10 8.11Q30.10 9.42 30.96 10.29L30.96 10.29L30.96 10.29Q31.82 11.17 33.07 11.17ZM38.80 12.09L38.80 1.69L39.77 1.69L39.77 12.09L38.80 12.09ZM48.08 9.42L48.08 9.42L48.88 9.85L48.88 9.85Q48.49 10.64 47.97 11.12L47.97 11.12L47.97 11.12Q47.44 11.59 46.79 11.84L46.79 11.84L46.79 11.84Q46.13 12.09 45.30 12.09L45.30 12.09L45.30 12.09Q43.47 12.09 42.44 10.89L42.44 10.89L42.44 10.89Q41.41 9.69 41.41 8.18L41.41 8.18L41.41 8.18Q41.41 6.75 42.28 5.64L42.28 5.64L42.28 5.64Q43.39 4.22 45.25 4.22L45.25 4.22L45.25 4.22Q47.16 4.22 48.31 5.67L48.31 5.67L48.31 5.67Q49.12 6.70 49.13 8.23L49.13 8.23L42.40 8.23L42.40 8.23Q42.42 9.54 43.23 10.38L43.23 10.38L43.23 10.38Q44.04 11.22 45.22 11.22L45.22 11.22L45.22 11.22Q45.79 11.22 46.33 11.02L46.33 11.02L46.33 11.02Q46.87 10.81 47.25 10.49L47.25 10.49L47.25 10.49Q47.63 10.16 48.08 9.42ZM42.50 7.40L48.08 7.40L48.08 7.40Q47.89 6.63 47.52 6.17L47.52 6.17L47.52 6.17Q47.15 5.71 46.54 5.42L46.54 5.42L46.54 5.42Q45.93 5.14 45.26 5.14L45.26 5.14L45.26 5.14Q44.16 5.14 43.37 5.85L43.37 5.85L43.37 5.85Q42.79 6.37 42.50 7.40L42.50 7.40ZM54.84 12.07L54.84 1.93L60.42 1.93L60.42 2.93L55.85 2.93L55.85 6.10L58.56 6.10L58.56 7.10L55.85 7.10L55.85 12.07L54.84 12.07ZM68.48 9.42L68.48 9.42L69.29 9.85L69.29 9.85Q68.90 10.64 68.37 11.12L68.37 11.12L68.37 11.12Q67.85 11.59 67.19 11.84L67.19 11.84L67.19 11.84Q66.53 12.09 65.71 12.09L65.71 12.09L65.71 12.09Q63.88 12.09 62.84 10.89L62.84 10.89L62.84 10.89Q61.81 9.69 61.81 8.18L61.81 8.18L61.81 8.18Q61.81 6.75 62.69 5.64L62.69 5.64L62.69 5.64Q63.79 4.22 65.66 4.22L65.66 4.22L65.66 4.22Q67.57 4.22 68.71 5.67L68.71 5.67L68.71 5.67Q69.53 6.70 69.54 8.23L69.54 8.23L62.80 8.23L62.80 8.23Q62.83 9.54 63.64 10.38L63.64 10.38L63.64 10.38Q64.44 11.22 65.63 11.22L65.63 11.22L65.63 11.22Q66.20 11.22 66.74 11.02L66.74 11.02L66.74 11.02Q67.28 10.81 67.66 10.49L67.66 10.49L67.66 10.49Q68.04 10.16 68.48 9.42ZM62.90 7.40L68.48 7.40L68.48 7.40Q68.29 6.63 67.92 6.17L67.92 6.17L67.92 6.17Q67.55 5.71 66.94 5.42L66.94 5.42L66.94 5.42Q66.34 5.14 65.67 5.14L65.67 5.14L65.67 5.14Q64.57 5.14 63.77 5.85L63.77 5.85L63.77 5.85Q63.20 6.37 62.90 7.40L62.90 7.40ZM74.87 4.22L74.87 4.22L74.87 4.22Q76.60 4.22 77.75 5.47L77.75 5.47L77.75 5.47Q78.80 6.61 78.80 8.18L78.80 8.18L78.80 8.18Q78.81 12.07 78.80 12.13L78.80 12.13L78.80 12.13Q78.14 12.13 77.78 12.13L77.78 12.13L77.78 12.13Q77.78 12.08 77.78 10.42L77.78 10.42L77.78 10.42Q76.98 11.92 74.87 12.09L74.87 12.09L74.87 12.09Q73.15 12.09 72.06 10.92L72.06 10.92L72.06 10.92Q70.97 9.75 70.97 8.18L70.97 8.18L70.97 8.18Q70.97 6.62 72.00 5.48L72.00 5.48L72.00 5.48Q73.14 4.22 74.87 4.22ZM74.87 5.16L74.87 5.16L74.87 5.16Q73.68 5.16 72.82 6.05L72.82 6.05L72.82 6.05Q71.96 6.94 71.96 8.20L71.96 8.20L71.96 8.20Q71.96 9.01 72.40 9.76L72.40 9.76L72.40 9.76Q72.84 10.51 73.89 11.03L73.89 11.03L73.89 11.03Q76.53 11.62 77.64 8.63L77.64 8.63L77.64 8.63Q77.70 7.68 77.44 6.80L77.44 6.80L77.44 6.80Q77.25 6.41 76.91 6.05L76.91 6.05L76.91 6.05Q76.07 5.16 74.87 5.16ZM83.37 11.03L83.37 11.03L83.37 11.03Q82.66 11.41 81.98 11.09L81.98 11.09L81.98 11.09Q81.14 10.45 81.18 9.28L81.18 9.28L81.18 6.10L82.96 6.10L82.96 5.28L81.18 5.28L81.18 1.65L80.21 1.65L80.21 9.44L80.21 9.44Q80.19 10.26 80.58 10.94L80.58 10.94L80.58 10.94Q81.22 12.03 82.33 12.09L82.33 12.09L82.33 12.09Q82.92 12.11 83.67 11.83L83.67 11.83L83.67 11.83Q83.56 11.54 83.37 11.03ZM85.08 8.02L85.08 4.41L86.05 4.41L86.05 7.91L86.05 7.91Q86.05 9.19 86.19 9.67L86.19 9.67L86.19 9.67Q86.39 10.36 86.97 10.76L86.97 10.76L86.97 10.76Q87.55 11.16 88.37 11.16L88.37 11.16L88.37 11.16Q89.17 11.16 89.74 10.77L89.74 10.77L89.74 10.77Q90.30 10.38 90.51 9.75L90.51 9.75L90.51 9.75Q90.66 9.32 90.66 7.91L90.66 7.91L90.66 4.41L91.64 4.41L91.64 8.09L91.64 8.09Q91.64 9.65 91.28 10.43L91.28 10.43L91.28 10.43Q90.91 11.21 90.19 11.65L90.19 11.65L90.19 11.65Q89.46 12.09 88.37 12.09L88.37 12.09L88.37 12.09Q87.27 12.09 86.54 11.65L86.54 11.65L86.54 11.65Q85.80 11.21 85.44 10.41L85.44 10.41L85.44 10.41Q85.08 9.62 85.08 8.02L85.08 8.02ZM93.41 12.07L93.41 8.65L93.41 7.75L93.41 7.75Q93.52 7.08 93.72 6.65L93.72 6.65L93.72 6.65Q94.20 5.48 95.01 4.93L95.01 4.93L95.01 4.93Q95.81 4.38 96.35 4.38L96.35 4.38L96.35 4.38Q96.74 4.38 97.19 4.64L97.19 4.64L96.69 5.45L96.69 5.45Q96.06 5.22 95.43 5.82L95.43 5.82L95.43 5.82Q94.81 6.43 94.57 7.15L94.57 7.15L94.57 7.15Q94.39 7.79 94.39 9.54L94.39 9.54L94.39 12.07L93.41 12.07ZM104.07 9.42L104.07 9.42L104.88 9.85L104.88 9.85Q104.49 10.64 103.96 11.12L103.96 11.12L103.96 11.12Q103.43 11.59 102.78 11.84L102.78 11.84L102.78 11.84Q102.12 12.09 101.29 12.09L101.29 12.09L101.29 12.09Q99.46 12.09 98.43 10.89L98.43 10.89L98.43 10.89Q97.40 9.69 97.40 8.18L97.40 8.18L97.40 8.18Q97.40 6.75 98.27 5.64L98.27 5.64L98.27 5.64Q99.38 4.22 101.25 4.22L101.25 4.22L101.25 4.22Q103.15 4.22 104.30 5.67L104.30 5.67L104.30 5.67Q105.12 6.70 105.12 8.23L105.12 8.23L98.39 8.23L98.39 8.23Q98.42 9.54 99.22 10.38L99.22 10.38L99.22 10.38Q100.03 11.22 101.21 11.22L101.21 11.22L101.21 11.22Q101.79 11.22 102.33 11.02L102.33 11.02L102.33 11.02Q102.87 10.81 103.25 10.49L103.25 10.49L103.25 10.49Q103.63 10.16 104.07 9.42ZM98.49 7.40L104.07 7.40L104.07 7.40Q103.88 6.63 103.51 6.17L103.51 6.17L103.51 6.17Q103.14 5.71 102.53 5.42L102.53 5.42L102.53 5.42Q101.92 5.14 101.25 5.14L101.25 5.14L101.25 5.14Q100.15 5.14 99.36 5.85L99.36 5.85L99.36 5.85Q98.79 6.37 98.49 7.40L98.49 7.40Z"></path></g><!----><!----></svg>